#tb 0: 1/25
0,          0,          0,        1,   149760, 0x8edb27d7
0,          1,          1,        1,   149760, 0x88cb1216
0,          2,          2,        1,   149760, 0x6d1024da
0,          3,          3,        1,   149760, 0x90b13981
0,          4,          4,        1,   149760, 0x4296ed51
0,          5,          5,        1,   149760, 0x4da5926f
0,          6,          6,        1,   149760, 0xa74b4368
0,          7,          7,        1,   149760, 0x518fb0fc
